PathFileType	4	(X/Y/Z)	C:/Users/opensim2020/Desktop/walking_exp_matlab/subject06_walking13_straight_01.trc																																																																																																																																																				
DataRate	CameraRate	NumFrames	NumMarkers	Units	OrigDataRate	OrigDataStartFrame	OrigNumFrames																																																																																																																																																
100	100	8	50	mm	100	930	163																																																																																																																																																
Frame#	Time	LFHD			RFHD			LBHD			RBHD			C7			T10			CLAV			STRN			RBAK			LSHO			LUPA			LELB			LFRM			LWRA			LWRB			LFIN			RSHO			RUPA			RELB			RFRM			RWRA			RWRB			RFIN			LASI			RASI			LPSI			RPSI			LTHI			LKNE			LTIB			LANK			LHEE			LTOE			RTHI			RKNE			RTIB			RANK			RHEE			RTOE			*39			*40			*41			*42			*43			*44			*45			*46			*47			*48			*49		
		X1	Y1	Z1	X2	Y2	Z2	X3	Y3	Z3	X4	Y4	Z4	X5	Y5	Z5	X6	Y6	Z6	X7	Y7	Z7	X8	Y8	Z8	X9	Y9	Z9	X10	Y10	Z10	X11	Y11	Z11	X12	Y12	Z12	X13	Y13	Z13	X14	Y14	Z14	X15	Y15	Z15	X16	Y16	Z16	X17	Y17	Z17	X18	Y18	Z18	X19	Y19	Z19	X20	Y20	Z20	X21	Y21	Z21	X22	Y22	Z22	X23	Y23	Z23	X24	Y24	Z24	X25	Y25	Z25	X26	Y26	Z26	X27	Y27	Z27	X28	Y28	Z28	X29	Y29	Z29	X30	Y30	Z30	X31	Y31	Z31	X32	Y32	Z32	X33	Y33	Z33	X34	Y34	Z34	X35	Y35	Z35	X36	Y36	Z36	X37	Y37	Z37	X38	Y38	Z38	X39	Y39	Z39	X40	Y40	Z40	X41	Y41	Z41	X42	Y42	Z42	X43	Y43	Z43	X44	Y44	Z44	X45	Y45	Z45	X46	Y46	Z46	X47	Y47	Z47	X48	Y48	Z48	X49	Y49	Z49	X50	Y50	Z50
																																																																																																																																																							
82	0.81	-20.25007	1633.39038	-1064.30933	-34.40221	1618.53601	-933.36395	-154.31696	1585.33386	-1080.47778	-166.66135	1575.38879	-951.9704	-169.4911	1425.15637	-1026.10828	-211.39642	1095.68225	-1020.65485	-60.98887	1343.33777	-1017.84436	-26.10504	1167.99963	-1025.88354	-252.43675	1255.15698	-957.77429	-106.76039	1380.32312	-1182.3811	-80.44954	1182.34131	-1258.48889	-60.66889	1072.26685	-1274.26599	48.56247	973.88324	-1291.26746	169.71097	941.7276	-1242.64294	134.30408	891.60736	-1277.73499	222.24146	871.26898	-1277.40771	-117.48434	1375.19629	-859.30975	-199.76849	1188.7865	-779.69141	-216.75684	1067.14001	-767.73663	-231.55214	947.45142	-750.01605	-206.11208	797.1051	-776.76239	-260.94531	812.57245	-740.8205	-244.4948	730.10962	-735.90509	-38.30831	929.94635	-1128.17712	-29.9209	943.01984	-905.52588	-194.83841	961.44202	-1092.29749	-182.50279	966.02789	-922.60504	-161.06621	623.85046	-1172.2135	-205.43567	464.50305	-1147.64856	-351.29941	247.70322	-1139.58606	-432.60568	95.22646	-1090.97681	-477.94199	96.7808	-1047.4613	-303.32727	32.57343	-1082.43713	-15.35774	619.43591	-842.70978	28.87206	504.02551	-874.36322	59.31116	242.82164	-876.70831	105.74969	65.55744	-918.8656	75.40569	38.21773	-966.59204	261.28851	51.62769	-915.62756	-124.26217	1674.50952	-1014.47357	NaN	NaN	NaN	NaN	NaN	NaN	NaN	NaN	NaN	NaN	NaN	NaN	NaN	NaN	NaN	NaN	NaN	NaN	NaN	NaN	NaN	NaN	NaN	NaN	NaN	NaN	NaN	NaN	NaN	NaN
83	0.82	-9.36286	1634.25525	-1062.85498	-23.27194	1619.35754	-931.90259	-143.28856	1585.67957	-1079.01355	-155.60715	1575.55249	-950.54303	-158.34019	1425.52344	-1024.53491	-199.03346	1095.47766	-1019.76202	-49.72126	1343.9292	-1016.47864	-14.60174	1168.46814	-1024.7428	-240.98154	1254.47241	-956.13684	-95.84657	1380.21167	-1181.39478	-69.96532	1181.58801	-1256.97461	-50.70084	1071.44519	-1272.76758	58.06055	972.28674	-1289.64856	179.12178	939.39783	-1241.07385	143.24745	889.58582	-1276.30884	231.20174	868.69153	-1275.98315	-105.94862	1375.05261	-857.63336	-187.18576	1187.83386	-778.46021	-203.45055	1066.00964	-766.49353	-217.81143	946.20721	-749.10168	-192.19615	795.94135	-776.26392	-246.72661	811.1723	-740.24963	-230.29329	728.94055	-735.297	-25.58902	929.70917	-1127.25098	-16.9771	943.29126	-904.341	-182.06036	961.33557	-1091.48132	-170.03658	967.40027	-921.36804	-148.46419	623.22351	-1171.04492	-192.94785	463.92868	-1146.39441	-343.71704	250.70471	-1139.74792	-429.18326	100.33791	-1092.82581	-474.74066	103.55747	-1049.83899	-302.74185	32.52653	-1082.71948	-2.33949	621.9389	-841.90796	40.12052	506.3494	-873.1203	69.95782	244.79599	-873.9259	110.39603	65.09095	-917.56598	78.23331	39.47335	-964.86829	264.81915	47.6399	-915.39093	-113.58486	1674.85388	-1012.9259	NaN	NaN	NaN	NaN	NaN	NaN	NaN	NaN	NaN	NaN	NaN	NaN	NaN	NaN	NaN	NaN	NaN	NaN	NaN	NaN	NaN	NaN	NaN	NaN	NaN	NaN	NaN	NaN	NaN	NaN
84	0.83	1.59178	1635.56372	-1061.29749	-12.13791	1620.58142	-930.45819	-132.26936	1586.78894	-1077.46606	-144.42773	1576.64392	-949.04346	-146.9585	1426.72449	-1022.98035	-186.57918	1095.97339	-1019.17499	-38.51885	1345.13184	-1015.16119	-2.80854	1169.63293	-1023.46539	-229.58253	1254.74207	-954.38879	-84.76776	1380.66284	-1180.40979	-59.67268	1181.37488	-1255.4082	-40.74738	1070.85828	-1271.30591	67.08179	970.69281	-1288.03662	187.93486	936.68372	-1239.8075	151.53796	887.29572	-1274.77173	239.1214	865.539	-1274.74658	-94.34464	1375.49268	-855.95355	-174.10986	1187.37305	-776.99402	-189.67044	1065.36707	-765.20795	-203.66501	945.41083	-748.14362	-177.69942	795.32025	-775.68201	-232.18604	810.3421	-739.47949	-215.57135	728.34064	-734.70245	-12.90431	930.07642	-1126.06189	-3.9376	944.75513	-903.05676	-169.22615	961.87671	-1091.12183	-157.5002	969.45422	-921.2135	-135.06105	622.99042	-1169.67737	-178.87054	463.53491	-1144.9801	-335.12955	254.37218	-1139.86694	-425.1752	106.28046	-1094.56079	-470.58295	111.22877	-1051.94531	-302.02655	32.47771	-1082.93701	10.65902	625.29596	-841.02557	51.32071	509.32373	-871.41193	79.09088	246.80405	-871.6615	113.02945	65.13499	-916.34412	79.8213	40.38046	-963.36499	266.88211	44.21696	-915.11652	-102.66045	1676.09131	-1011.36737	NaN	NaN	NaN	NaN	NaN	NaN	NaN	NaN	NaN	NaN	NaN	NaN	NaN	NaN	NaN	NaN	NaN	NaN	NaN	NaN	NaN	NaN	NaN	NaN	NaN	NaN	NaN	NaN	NaN	NaN
85	0.84	12.75633	1637.06042	-1059.9043	-0.88145	1622.12805	-929.06976	-121.17893	1588.44373	-1075.84021	-133.17734	1578.38928	-947.45319	-135.58876	1428.29102	-1021.52313	-174.58022	1097.25146	-1018.74951	-27.28471	1346.78613	-1013.86865	9.10927	1171.44055	-1022.20642	-218.1311	1255.85425	-952.59521	-73.32233	1381.72986	-1179.34656	-49.69797	1181.8219	-1253.68542	-30.95492	1071.07202	-1269.47974	75.58775	969.13623	-1286.41418	196.1378	933.52722	-1238.39771	158.83978	884.60944	-1273.24158	246.10503	861.78503	-1273.57849	-82.71202	1376.57996	-854.41663	-160.57367	1187.49719	-775.41937	-175.46758	1065.35022	-764.01746	-189.01561	945.23633	-747.14905	-162.86353	795.27917	-775.22675	-217.17259	810.15198	-738.65179	-200.29288	728.14954	-734.11035	-0.10501	931.01648	-1124.63965	8.95893	947.5152	-901.92969	-156.27879	962.50433	-1091.17737	-145.56522	971.92468	-921.49866	-120.88788	623.0141	-1168.21838	-163.41841	463.27231	-1143.47083	-325.65393	258.73029	-1139.71753	-419.87836	113.11279	-1096.04224	-465.04813	119.99976	-1053.74243	-300.8801	32.67443	-1082.99487	23.13496	628.6933	-840.30048	63.51327	512.82532	-870.68335	85.48969	247.98755	-869.41913	114.00859	65.48083	-915.34357	80.25149	40.74992	-962.21313	267.78986	41.58805	-915.35272	-91.33425	1677.73718	-1009.85382	NaN	NaN	NaN	NaN	NaN	NaN	NaN	NaN	NaN	NaN	NaN	NaN	NaN	NaN	NaN	NaN	NaN	NaN	NaN	NaN	NaN	NaN	NaN	NaN	NaN	NaN	NaN	NaN	NaN	NaN
86	0.85	24.01295	1638.90137	-1058.6156	10.48498	1623.95959	-927.64117	-110.09177	1590.48193	-1074.29602	-121.90997	1580.5459	-945.86816	-124.27821	1430.11096	-1020.16217	-162.74425	1099.12537	-1018.26715	-15.88807	1348.77466	-1012.57068	20.97079	1173.59338	-1021.0011	-206.09779	1257.58167	-950.95447	-61.92531	1383.29456	-1178.05493	-39.78557	1183.01013	-1251.93494	-21.17825	1072.12646	-1267.40796	83.81146	968.06628	-1284.45227	203.57298	930.01227	-1237.00134	165.17245	881.77014	-1271.58264	251.88538	857.50836	-1272.60876	-71.10195	1378.22083	-853.10803	-146.9959	1188.20386	-774.10181	-160.89317	1065.87512	-762.87744	-173.87033	945.6922	-746.12994	-147.37402	795.862	-774.73273	-201.3898	810.49487	-737.62457	-184.44098	728.52094	-733.52246	12.59608	932.48108	-1122.90588	21.26901	951.01331	-900.79651	-143.28247	963.74268	-1091.20581	-133.86218	974.74622	-921.76697	-106.01904	623.33087	-1166.65649	-146.69261	463.285	-1142.14355	-314.75574	263.69412	-1139.65833	-413.42764	120.78608	-1097.34912	-458.1196	129.74486	-1055.20581	-300.01495	32.533	-1082.66748	35.40131	632.09729	-839.14526	75.13188	515.74359	-870.02301	90.18291	248.83331	-867.5069	114.86507	65.53024	-914.67145	80.65237	40.92828	-961.24475	268.52063	40.14685	-915.5907	-79.87434	1679.87146	-1008.34076	NaN	NaN	NaN	NaN	NaN	NaN	NaN	NaN	NaN	NaN	NaN	NaN	NaN	NaN	NaN	NaN	NaN	NaN	NaN	NaN	NaN	NaN	NaN	NaN	NaN	NaN	NaN	NaN	NaN	NaN
87	0.86	35.20804	1640.86609	-1057.1311	21.76411	1626.07739	-926.2486	-99.04508	1592.89722	-1072.79895	-110.66052	1582.94141	-944.32269	-113.16003	1432.08826	-1018.8681	-150.98238	1101.27612	-1017.61139	-4.44923	1351.10742	-1011.38098	32.96794	1176.11414	-1019.77979	-194.49387	1259.44873	-949.57233	-50.39745	1385.64758	-1176.79431	-29.5048	1184.94885	-1250.37732	-11.25316	1073.76196	-1265.0542	91.23907	967.02991	-1282.45984	210.38956	926.25543	-1235.62646	170.56886	878.79962	-1269.84961	256.69321	852.80347	-1271.70581	-59.58399	1380.34485	-851.88379	-133.45137	1189.39648	-773.0459	-146.11446	1067.00708	-761.82477	-158.2778	946.7334	-745.1637	-131.50981	796.99835	-774.32867	-185.29027	811.55139	-736.2533	-167.82803	729.34772	-732.93414	25.22693	934.4798	-1121.02893	33.02211	954.84637	-899.4798	-130.5085	965.48541	-1090.89954	-122.09911	977.45087	-921.73505	-90.50993	623.92633	-1165.13159	-128.75313	463.49771	-1141.22729	-302.66937	269.13071	-1139.0874	-405.39957	129.37486	-1098.21936	-449.48148	140.40964	-1055.85217	-299.06076	32.60835	-1082.32715	47.16356	635.03021	-837.85083	85.19679	517.43579	-868.83667	95.27882	249.66389	-866.3988	116.04393	65.79329	-914.27661	81.0868	41.28966	-960.638	269.4324	39.16795	-915.80615	-68.60139	1682.0625	-1006.89661	NaN	NaN	NaN	NaN	NaN	NaN	NaN	NaN	NaN	NaN	NaN	NaN	NaN	NaN	NaN	NaN	NaN	NaN	NaN	NaN	NaN	NaN	NaN	NaN	NaN	NaN	NaN	NaN	NaN	NaN
88	0.87	46.37742	1643.29822	-1055.69763	33.06222	1628.38269	-924.89459	-87.93419	1595.55713	-1071.28772	-99.48353	1585.47937	-942.79065	-102.02954	1434.2262	-1017.64496	-139.28676	1103.62634	-1016.58667	6.98744	1353.69885	-1010.23187	44.94536	1178.9281	-1018.63391	-182.63586	1261.63416	-948.53229	-39.19463	1388.21851	-1175.47498	-19.26011	1187.19995	-1248.48279	-1.79024	1076.02026	-1262.80493	98.45264	966.63489	-1280.41248	216.39503	922.33765	-1234.21973	174.96872	875.76648	-1268.05371	260.27414	847.65991	-1270.74829	-48.1184	1382.89795	-850.81641	-119.80363	1190.98523	-771.91986	-131.06761	1068.58472	-760.83954	-142.31604	948.23395	-744.18073	-115.13353	798.62646	-773.86743	-168.17259	812.77533	-735.25708	-150.75034	730.63586	-732.18896	37.63681	936.86139	-1118.88501	44.78519	958.83099	-898.1767	-117.81123	967.5011	-1090.05432	-110.01782	980.12024	-921.2594	-74.65041	624.72961	-1163.66418	-109.8187	463.74094	-1140.73389	-289.25003	274.88458	-1138.66345	-396.39911	138.54703	-1098.84937	-439.18442	152.04083	-1056.21301	-298.17657	32.83848	-1081.82776	58.07116	637.08453	-836.66956	94.04726	518.55383	-867.66083	100.02305	250.28275	-865.93085	116.96205	65.92341	-914.27808	81.25816	41.48361	-960.42426	269.91522	38.31282	-916.28265	-57.28117	1684.60034	-1005.33496	NaN	NaN	NaN	NaN	NaN	NaN	NaN	NaN	NaN	NaN	NaN	NaN	NaN	NaN	NaN	NaN	NaN	NaN	NaN	NaN	NaN	NaN	NaN	NaN	NaN	NaN	NaN	NaN	NaN	NaN
89	0.88	57.51708	1645.71973	-1054.32275	44.22223	1630.66956	-923.47089	-76.81982	1598.41382	-1069.94434	-88.42941	1588.1283	-941.51147	-90.76989	1436.52112	-1016.47089	-127.61495	1106.23535	-1015.2005	18.4567	1356.40381	-1009.23352	56.83698	1181.85657	-1017.55927	-170.73549	1264.04846	-947.58771	-28.20808	1391.10449	-1174.30029	-8.73161	1189.80627	-1246.46021	7.65544	1078.59412	-1260.34314	104.90094	966.0755	-1278.25439	221.75375	918.29053	-1232.90686	178.52951	872.85156	-1266.36523	262.76907	842.26331	-1269.85059	-36.62973	1385.68823	-849.86469	-106.1315	1192.94714	-770.80408	-115.79785	1070.47498	-759.80811	-125.95581	950.11371	-743.13055	-98.24524	800.66382	-773.31757	-150.87793	814.65381	-733.80328	-133.02901	732.17865	-731.49933	49.84215	939.6734	-1116.70239	56.07553	962.39105	-896.55334	-105.63414	969.896	-1088.64417	-97.96393	982.64465	-920.20343	-58.64268	625.76324	-1162.47009	-90.15599	464.08148	-1140.7771	-274.68082	280.91919	-1138.22949	-385.56995	147.98666	-1099.39001	-426.74649	163.65628	-1056.01575	-296.88278	33.41779	-1081.53296	67.66777	638.22876	-835.69287	101.82433	519.10303	-866.93866	104.24345	250.50143	-865.82294	117.46622	66.01831	-914.61389	81.30912	41.58269	-960.50415	270.39471	37.6999	-917.05469	-45.97361	1687.32349	-1003.82104	NaN	NaN	NaN	NaN	NaN	NaN	NaN	NaN	NaN	NaN	NaN	NaN	NaN	NaN	NaN	NaN	NaN	NaN	NaN	NaN	NaN	NaN	NaN	NaN	NaN	NaN	NaN	NaN	NaN	NaN
